<svg width="1067" height="1091" viewBox="0 0 1067 1091" fill="none" xmlns="http://www.w3.org/2000/svg">
<g filter="url(#filter0_f_202_3)">
<path fill-rule="evenodd" clip-rule="evenodd" d="M531.781 230.022C669.764 228.711 812.712 287.089 855.442 418.296C898.242 549.719 815.835 679.295 704.979 761.847C588.96 848.243 434.909 902.868 316.712 819.477C194.644 733.355 175.294 564.609 226.498 424.268C272.204 298.998 398.439 231.288 531.781 230.022Z" fill="url(#paint0_linear_202_3)"/>
</g>
<g filter="url(#filter1_f_202_3)">
<path fill-rule="evenodd" clip-rule="evenodd" d="M541.435 268.179C591.895 250.222 640.188 180.199 687.441 205.416C736.816 231.765 706.67 314.464 726.346 366.857C738.695 399.741 780.605 420.287 781.325 455.407C782.087 492.591 726.718 516.157 730.166 553.188C734.843 603.412 803.413 633.715 802.624 684.149C801.944 727.557 755.514 755.774 726.49 788.058C692.789 825.546 667.583 893.91 617.304 890.289C558.903 886.084 534.584 810.083 490.901 771.094C466.011 748.878 439.011 730.838 413.966 708.798C390.737 688.355 369.893 666.807 347.79 645.153C319.547 617.484 257.331 601.317 264.583 562.45C273.262 515.936 374.588 527.573 378.527 480.42C384.126 413.415 266.497 367.833 286.215 303.551C300.979 255.417 385.497 302.031 435.367 295.119C471.899 290.056 506.688 280.544 541.435 268.179Z" fill="url(#paint1_linear_202_3)"/>
</g>
<g filter="url(#filter2_f_202_3)">
<path fill-rule="evenodd" clip-rule="evenodd" d="M531.115 281.16C580.418 286.123 635.334 262.48 677.012 289.281C718.661 316.063 724.246 373.559 744.835 418.591C763.488 459.392 781.396 498.528 792.545 541.983C806.739 597.303 854.533 663.446 819.159 708.285C781.494 756.028 697.66 709.789 641.59 733.331C595.85 752.535 578.527 814.627 531.115 829.223C479.654 845.064 422.93 835.909 372.883 816.048C318.796 794.584 251.617 768.343 236.266 712.214C220.069 652.991 295.94 603.348 297.93 541.983C299.817 483.798 233.3 434.564 247.103 378.008C260.749 322.095 312.74 276.673 367.214 258.097C420.338 239.982 475.269 275.539 531.115 281.16Z" fill="url(#paint2_linear_202_3)"/>
</g>
<defs>
<filter id="filter0_f_202_3" x="0" y="30" width="1066.95" height="1030.87" filterUnits="userSpaceOnUse" color-interpolation-filters="sRGB">
<feFlood flood-opacity="0" result="BackgroundImageFix"/>
<feBlend mode="normal" in="SourceGraphic" in2="BackgroundImageFix" result="shape"/>
<feGaussianBlur stdDeviation="100" result="effect1_foregroundBlur_202_3"/>
</filter>
<filter id="filter1_f_202_3" x="64" y="0" width="938.631" height="1090.43" filterUnits="userSpaceOnUse" color-interpolation-filters="sRGB">
<feFlood flood-opacity="0" result="BackgroundImageFix"/>
<feBlend mode="normal" in="SourceGraphic" in2="BackgroundImageFix" result="shape"/>
<feGaussianBlur stdDeviation="100" result="effect1_foregroundBlur_202_3"/>
</filter>
<filter id="filter2_f_202_3" x="16" y="35" width="1033.94" height="1020.28" filterUnits="userSpaceOnUse" color-interpolation-filters="sRGB">
<feFlood flood-opacity="0" result="BackgroundImageFix"/>
<feBlend mode="normal" in="SourceGraphic" in2="BackgroundImageFix" result="shape"/>
<feGaussianBlur stdDeviation="109" result="effect1_foregroundBlur_202_3"/>
</filter>
<linearGradient id="paint0_linear_202_3" x1="200" y1="860.872" x2="931" y2="541.048" gradientUnits="userSpaceOnUse">
<stop stop-color="#6CACE4"/>
<stop offset="0.0666667" stop-color="#6CACE4"/>
<stop offset="0.133333" stop-color="#6DADE4"/>
<stop offset="0.2" stop-color="#6FAEE5"/>
<stop offset="0.266667" stop-color="#72B0E5"/>
<stop offset="0.333333" stop-color="#75B3E6"/>
<stop offset="0.4" stop-color="#79B6E7"/>
<stop offset="0.466667" stop-color="#7DB9E8"/>
<stop offset="0.533333" stop-color="#82BDEA"/>
<stop offset="0.6" stop-color="#86C0EB"/>
<stop offset="0.666667" stop-color="#8AC3EC"/>
<stop offset="0.733333" stop-color="#8DC6ED"/>
<stop offset="0.8" stop-color="#90C8ED"/>
<stop offset="0.866667" stop-color="#92C9EE"/>
<stop offset="0.933333" stop-color="#93CAEE"/>
<stop offset="1" stop-color="#93CAEE"/>
</linearGradient>
<linearGradient id="paint1_linear_202_3" x1="264" y1="890.427" x2="900.964" y2="684.778" gradientUnits="userSpaceOnUse">
<stop stop-color="#6CACE4"/>
<stop offset="0.0666667" stop-color="#6CACE4"/>
<stop offset="0.133333" stop-color="#6DADE4"/>
<stop offset="0.2" stop-color="#6FAEE5"/>
<stop offset="0.266667" stop-color="#72B0E5"/>
<stop offset="0.333333" stop-color="#75B3E6"/>
<stop offset="0.4" stop-color="#79B6E7"/>
<stop offset="0.466667" stop-color="#7DB9E8"/>
<stop offset="0.533333" stop-color="#82BDEA"/>
<stop offset="0.6" stop-color="#86C0EB"/>
<stop offset="0.666667" stop-color="#8AC3EC"/>
<stop offset="0.733333" stop-color="#8DC6ED"/>
<stop offset="0.8" stop-color="#90C8ED"/>
<stop offset="0.866667" stop-color="#92C9EE"/>
<stop offset="0.933333" stop-color="#93CAEE"/>
<stop offset="1" stop-color="#93CAEE"/>
</linearGradient>
<linearGradient id="paint2_linear_202_3" x1="-33.5808" y1="548.139" x2="522.88" y2="1117.6" gradientUnits="userSpaceOnUse">
<stop stop-color="#E25544"/>
<stop offset="1" stop-color="#620C90"/>
</linearGradient>
</defs>
</svg>
